<?xml version="1.0" standalone="no"?>
<!DOCTYPE svg PUBLIC "-//W3C//DTD SVG 20010904//EN"
 "http://www.w3.org/TR/2001/REC-SVG-20010904/DTD/svg10.dtd">
<svg version="1.0" xmlns="http://www.w3.org/2000/svg"
 width="423.000000pt" height="423.000000pt" viewBox="0 0 423.000000 423.000000"
 preserveAspectRatio="xMidYMid meet">
<metadata>
Created by potrace 1.14, written by Peter Selinger 2001-2017
</metadata>
<g transform="translate(0.000000,423.000000) scale(0.100000,-0.100000)"
fill="#000000" stroke="none">
<path d="M233 3432 c-58 -17 -118 -77 -135 -136 -10 -32 -13 -124 -12 -342 1
-165 4 -322 7 -351 8 -72 26 -172 38 -211 6 -18 12 -39 13 -45 19 -112 167
-404 248 -492 15 -16 28 -33 28 -37 0 -5 8 -16 18 -26 9 -10 37 -41 63 -68 70
-75 190 -181 242 -212 15 -9 27 -20 27 -24 0 -4 5 -8 12 -8 6 0 19 -6 27 -14
9 -7 48 -31 86 -51 39 -21 76 -42 83 -48 6 -5 12 -6 12 -2 0 4 12 0 26 -10 15
-9 38 -21 53 -25 14 -5 51 -18 81 -29 30 -12 64 -23 75 -26 11 -2 49 -11 85
-20 140 -34 373 -49 498 -31 87 12 215 38 253 51 22 8 40 14 42 14 15 -2 210
83 258 113 25 15 51 28 58 28 6 0 11 5 11 10 0 6 6 10 14 10 8 0 16 3 18 8 2
4 34 30 71 57 144 105 313 294 408 456 76 130 167 357 172 429 1 16 4 30 7 30
5 0 10 28 13 68 0 6 3 12 6 12 3 0 6 15 7 33 0 17 4 65 8 106 6 71 8 212 3
276 -1 17 1 40 5 52 4 12 4 24 0 27 -6 3 -7 63 -2 74 2 4 1 171 -1 180 -1 4
-3 12 -3 17 -3 18 -48 105 -55 105 -4 0 -16 8 -27 18 -52 48 1 46 -1442 47
-1079 0 -1363 -3 -1399 -13z m2762 -104 c11 -5 29 -21 40 -36 19 -26 20 -42
20 -322 0 -162 -4 -320 -8 -350 -4 -30 -9 -71 -11 -90 -2 -19 -4 -35 -6 -35
-1 0 -4 -13 -6 -30 -7 -43 -72 -242 -91 -279 -10 -17 -18 -33 -19 -36 -1 -3
-5 -15 -9 -27 -4 -13 -12 -23 -17 -23 -5 0 -7 -4 -4 -9 3 -4 -6 -23 -19 -41
-14 -19 -25 -37 -25 -41 0 -12 -92 -143 -107 -152 -7 -4 -13 -15 -13 -23 0 -8
-4 -12 -10 -9 -5 3 -10 1 -10 -5 0 -12 -132 -146 -190 -193 -129 -105 -333
-212 -485 -254 -213 -58 -454 -66 -665 -22 -74 15 -242 69 -259 83 -8 6 -17
10 -20 9 -8 -4 -135 60 -139 69 -2 4 -8 8 -14 8 -12 0 -149 92 -207 139 -57
47 -146 135 -196 196 -22 26 -46 54 -53 61 -7 8 -10 14 -5 14 4 0 3 4 -3 8
-19 12 -94 133 -134 217 -42 87 -97 237 -105 288 -3 18 -8 41 -12 51 -12 41
-15 101 -19 424 -3 241 -1 338 7 355 16 30 42 54 65 59 40 9 2710 5 2729 -4z"/>
<path d="M1015 3192 c-3 -3 -5 -39 -5 -81 l0 -76 57 -2 c31 -1 61 -4 67 -6 7
-3 11 -70 11 -208 l-1 -204 83 0 c50 -1 84 3 84 10 1 5 3 93 4 195 1 102 3
192 4 201 1 12 13 15 65 13 l64 -3 -2 82 -1 82 -213 1 c-117 0 -214 -2 -217
-4z"/>
<path d="M1509 3192 c-1 -4 -2 -134 -3 -289 -1 -184 2 -283 9 -284 44 -6 138
-3 142 4 3 5 6 64 7 132 0 68 5 127 9 131 4 5 16 3 25 -2 14 -9 17 -30 19
-130 1 -65 2 -123 2 -129 1 -6 34 -10 76 -10 60 -1 76 2 79 15 2 8 3 83 2 165
-3 158 -11 189 -57 231 -23 20 -95 26 -137 11 -23 -9 -23 -7 -22 45 1 29 1 67
1 84 l-1 31 -75 1 c-41 1 -75 -2 -76 -6z"/>
<path d="M2073 3024 c-169 -84 -163 -333 10 -399 55 -21 145 -17 195 9 34 17
34 22 1 61 -10 11 -26 31 -36 44 -16 20 -23 22 -41 12 -37 -20 -59 -13 -76 23
-20 42 -20 79 -1 115 22 44 88 51 98 10 4 -16 0 -19 -33 -19 -31 0 -38 -4 -42
-22 -10 -57 -5 -59 112 -57 60 1 114 5 120 9 12 8 8 70 -8 111 -15 37 -58 86
-95 105 -18 9 -60 18 -94 19 -50 3 -72 -1 -110 -21z"/>
<path d="M801 2570 c-9 -18 -7 -158 2 -167 4 -3 51 -6 104 -7 l98 -1 0 -139 0
-139 -34 -3 c-39 -5 -91 -28 -117 -53 -22 -21 -59 -66 -55 -66 1 0 -3 -13 -9
-30 -26 -69 -18 -175 19 -235 52 -84 173 -124 274 -91 20 7 37 17 37 23 0 6 3
9 6 5 10 -9 44 26 44 46 0 10 -7 25 -15 33 -8 8 -19 23 -24 32 -8 14 -13 15
-28 4 -57 -39 -108 -44 -156 -13 -18 11 -27 21 -22 21 6 0 4 4 -4 9 -14 9 -19
85 -9 121 7 25 29 62 35 57 2 -3 15 0 27 7 13 6 63 11 114 11 56 0 92 4 93 10
0 5 1 96 2 200 l2 190 35 2 c19 0 49 1 66 2 l30 1 -1 85 c0 46 -4 87 -8 91 -4
5 -118 8 -253 8 -209 1 -247 -1 -253 -14z"/>
<path d="M1498 2416 c-21 -8 -38 -12 -38 -9 0 2 -20 -15 -45 -38 -51 -48 -77
-116 -71 -183 6 -52 45 -134 68 -142 10 -3 18 -9 18 -13 0 -15 88 -44 135 -44
25 0 86 14 109 24 32 15 33 33 2 64 -13 13 -31 34 -39 45 -13 19 -18 20 -37
10 -46 -24 -91 9 -92 68 -2 58 12 90 44 101 34 12 68 0 68 -24 0 -13 -29 -20
-66 -16 -7 1 -11 -14 -11 -38 l1 -38 118 0 c131 1 137 4 122 70 -4 17 -8 34
-8 37 -1 3 -12 22 -24 43 -47 75 -168 114 -254 83z"/>
<path d="M1987 2419 c-88 -21 -149 -105 -152 -208 -2 -61 7 -90 42 -138 41
-56 84 -79 166 -87 39 -3 46 10 44 89 -2 66 -3 70 -25 70 -13 0 -35 11 -49 23
-20 18 -24 28 -18 50 9 36 17 43 53 44 56 2 66 -20 65 -148 -1 -99 1 -114 16
-115 82 -5 118 -5 131 2 12 6 15 29 14 124 -1 64 -7 136 -14 160 -12 43 -71
120 -84 108 -3 -3 -6 -2 -6 4 0 22 -123 37 -183 22z"/>
<path d="M1197 1887 c-61 -48 -33 -142 45 -152 29 -4 43 1 66 20 54 45 44 122
-18 144 -47 16 -61 14 -93 -12z m78 -57 c9 -15 -14 -40 -31 -33 -22 8 -18 43
5 43 11 0 23 -5 26 -10z"/>
<path d="M1399 1891 c-17 -13 -21 -30 -23 -84 -2 -37 0 -68 3 -68 34 -8 51 -4
52 10 2 23 6 74 8 91 3 32 20 -8 23 -54 3 -43 6 -50 26 -51 28 -2 36 10 38 55
2 63 3 67 13 50 5 -8 8 -34 7 -57 -2 -44 8 -54 45 -45 13 3 17 17 18 62 1 88
-21 108 -109 100 -8 -1 -30 0 -48 3 -21 3 -40 -1 -53 -12z"/>
<path d="M1693 1900 c-33 -13 -45 -45 -47 -132 -2 -76 5 -110 20 -95 4 4 13 2
21 -4 7 -6 14 -9 14 -5 1 3 3 11 4 16 1 6 3 21 4 35 1 20 5 24 24 21 75 -12
119 93 62 150 -18 18 -72 25 -102 14z m63 -76 c-1 -8 -12 -23 -24 -34 l-22
-21 0 35 c0 33 13 47 37 39 6 -2 10 -11 9 -19z"/>
<path d="M1883 1891 c-27 -21 -43 -53 -38 -77 2 -10 4 -22 4 -25 1 -3 10 -16
21 -29 16 -19 31 -23 80 -24 34 -1 64 3 68 9 9 12 8 70 -1 107 -13 49 -93 72
-134 39z m75 -87 c-1 -22 -4 -30 -9 -22 -5 7 -14 13 -21 13 -17 0 -23 36 -7
45 23 15 38 -1 37 -36z"/>
<path d="M2103 1898 c-27 -13 -36 -37 -38 -105 -1 -43 2 -53 18 -57 36 -9 47
4 47 55 0 27 5 49 10 49 11 0 13 -15 12 -66 -1 -24 4 -33 19 -37 45 -12 49 4
40 130 -2 28 -73 48 -108 31z"/>
<path d="M2263 1903 c-9 -3 -13 -26 -13 -64 0 -50 4 -64 24 -84 17 -17 30 -22
47 -18 21 6 23 5 10 -10 -7 -9 -22 -17 -33 -17 -15 0 -19 -6 -16 -27 3 -25 7
-28 37 -26 21 1 43 10 59 27 24 24 26 32 26 123 l1 98 -30 0 c-28 0 -29 -2
-32 -49 -5 -78 -22 -80 -26 -2 -1 25 -4 46 -7 47 -3 0 -12 2 -20 3 -8 2 -21 1
-27 -1z"/>
<path d="M3970 3443 c-18 -7 -193 -114 -200 -122 -3 -3 -25 -20 -49 -36 -59
-39 -201 -180 -237 -234 -55 -82 -115 -207 -129 -266 -2 -11 -9 -38 -14 -60
-17 -71 -22 -100 -36 -210 -2 -16 -4 -30 -5 -30 -1 0 -3 -11 -5 -25 -1 -14 -5
-38 -9 -55 -3 -16 -8 -41 -11 -55 -13 -66 -19 -87 -36 -126 -9 -23 -15 -45
-12 -47 7 -7 73 24 73 35 0 4 5 8 11 8 6 0 30 15 52 33 23 17 45 32 50 32 23
0 228 202 299 295 15 19 41 51 58 70 l31 35 -15 -37 c-33 -78 -53 -117 -79
-152 -23 -32 -84 -114 -97 -130 -8 -11 -65 -70 -127 -133 -61 -62 -108 -113
-105 -113 4 0 -10 -12 -31 -27 -20 -14 -37 -30 -37 -35 0 -12 132 -2 216 16
94 20 294 107 294 128 0 5 4 7 8 4 5 -3 30 15 56 40 26 24 52 44 57 44 5 0 9
4 9 8 0 5 11 22 25 38 14 16 39 49 55 74 16 25 34 51 40 57 6 7 10 15 10 18
-1 15 13 55 20 55 4 0 11 17 15 38 11 51 11 52 24 100 25 90 28 286 7 390 -3
15 -8 41 -11 58 -6 39 -57 194 -85 259 -27 63 -41 73 -80 58z"/>
<path d="M1243 1017 c-13 -5 -23 -15 -23 -21 0 -6 -7 -24 -15 -40 -10 -20 -12
-32 -5 -36 6 -3 11 -22 11 -41 3 -70 -1 -110 -10 -105 -5 4 -8 -2 -7 -11 2
-13 13 -17 45 -18 46 -1 63 15 39 38 -11 12 -14 48 -9 125 1 6 8 12 17 12 12
0 15 7 12 25 -3 14 -1 25 4 25 5 0 8 10 6 21 -4 27 -36 40 -65 26z m32 -46 c3
-5 1 -12 -5 -16 -5 -3 -10 1 -10 9 0 18 6 21 15 7z"/>
<path d="M1659 1022 c-42 -5 -69 -71 -45 -111 3 -4 -5 -21 -19 -37 -24 -28
-27 -51 -10 -101 8 -26 40 -33 125 -29 79 4 78 3 85 37 9 40 -11 64 -21 25 -3
-14 -10 -26 -15 -26 -12 0 -11 27 1 35 6 4 8 11 5 16 -4 5 1 19 9 31 23 32 21
35 -24 35 -40 0 -64 -22 -35 -33 8 -4 15 -15 15 -25 0 -23 -7 -24 -25 -5 -23
23 -28 61 -11 79 23 22 37 65 25 72 -5 4 -7 10 -5 14 8 12 -27 27 -55 23z m17
-40 c15 -9 -1 -56 -16 -47 -12 7 -14 55 -2 55 4 0 12 -4 18 -8z m-18 -160 c25
-50 25 -51 2 -45 -24 6 -44 38 -36 59 8 21 20 17 34 -14z"/>
<path d="M619 1013 c-5 -46 -4 -95 2 -99 7 -4 35 37 31 44 -7 9 1 22 13 22 12
0 15 -18 14 -100 0 -80 -3 -100 -15 -100 -8 0 -14 -7 -14 -15 0 -17 -2 -16 62
-18 51 -2 67 11 40 34 -23 20 -25 194 -2 194 10 0 16 -12 18 -33 4 -40 25 -38
32 4 13 66 7 70 -91 73 -49 1 -89 -2 -90 -6z"/>
<path d="M1895 1009 c-3 -4 1 -13 8 -21 17 -17 17 -189 0 -209 -7 -8 -9 -19
-5 -24 7 -10 147 -14 156 -4 6 5 6 18 5 77 0 34 -29 28 -29 -7 0 -21 -6 -32
-21 -36 -11 -4 -23 -4 -27 0 -4 3 -7 48 -7 100 -1 68 3 96 12 99 7 3 13 12 13
21 0 11 -12 14 -50 14 -28 -1 -53 -5 -55 -10z"/>
<path d="M2766 963 c-4 -4 -22 -6 -40 -5 -58 5 -98 -54 -77 -112 6 -14 4 -28
-4 -40 -11 -14 -11 -22 -3 -36 9 -14 9 -22 -1 -34 -22 -26 19 -56 77 -56 60 0
92 21 92 60 0 28 -29 57 -44 43 -3 -3 -6 -2 -6 3 0 6 -15 8 -34 6 -18 -2 -37
1 -40 7 -5 7 5 11 28 11 40 0 69 31 69 76 0 17 4 23 13 20 14 -5 31 13 28 32
-1 6 -2 17 -3 22 -1 11 -44 14 -55 3z m-36 -78 c0 -36 -17 -56 -30 -35 -4 6
-6 21 -5 33 1 12 3 27 4 34 3 29 31 -1 31 -32z m38 -157 c-5 -14 -54 -29 -63
-19 -4 3 -11 7 -16 7 -19 3 -20 4 -14 14 9 15 98 13 93 -2z"/>
<path d="M868 949 c-10 -5 -18 -6 -18 -2 -1 4 -7 -7 -15 -24 -21 -49 -12 -143
16 -165 22 -19 65 -23 86 -10 11 7 33 54 33 72 0 5 -9 8 -20 7 -13 -1 -20 -8
-20 -23 0 -36 -45 -40 -50 -4 -5 34 1 40 40 40 25 0 41 5 42 13 0 6 2 19 3 27
2 22 -22 67 -40 74 -23 8 -37 7 -57 -5z m42 -47 c0 -23 -8 -32 -25 -26 -17 7
-7 44 11 44 8 0 14 -8 14 -18z"/>
<path d="M1035 953 c-34 -9 -53 -54 -30 -73 21 -17 58 -2 52 21 -3 12 0 19 8
19 20 0 28 -19 16 -34 -6 -7 -9 -16 -6 -19 3 -4 2 -5 -1 -2 -8 5 -67 -24 -76
-39 -12 -18 -9 -56 6 -72 18 -17 58 -18 74 -2 9 9 15 9 24 0 17 -17 35 -15 58
8 21 21 17 52 -5 44 -10 -4 -13 5 -12 33 1 68 -11 110 -36 117 -24 6 -42 6
-72 -1z m51 -148 c-4 -16 -13 -25 -26 -25 -26 0 -25 15 1 41 25 25 34 19 25
-16z"/>
<path d="M1349 939 c-21 -18 -24 -29 -24 -91 0 -61 3 -72 24 -89 29 -24 63
-24 89 -1 27 23 33 65 10 70 -11 2 -18 -3 -18 -12 0 -8 -7 -22 -17 -31 -18
-18 -24 -13 -37 33 -7 20 -4 22 31 22 55 0 63 9 53 53 -4 21 -13 43 -18 50
-18 21 -67 19 -93 -4z m61 -44 c0 -26 -7 -30 -28 -17 -16 10 -5 42 14 42 8 0
14 -10 14 -25z"/>
<path d="M2108 940 c-14 -11 -26 -30 -26 -42 0 -13 -1 -27 -3 -33 -2 -5 0 -31
4 -56 9 -55 37 -75 91 -65 28 5 37 13 46 41 16 48 10 123 -13 151 -23 30 -65
31 -99 4z m63 -27 c2 -17 2 -79 1 -105 -1 -18 -8 -28 -17 -28 -15 0 -17 10
-17 75 0 58 1 65 17 65 8 0 15 -3 16 -7z"/>
<path d="M2252 952 c-11 -3 -10 -8 1 -25 8 -13 14 -50 14 -90 1 -38 6 -74 12
-80 14 -14 241 -17 241 -3 0 5 6 4 13 0 10 -8 49 -10 91 -5 4 1 2 11 -6 24 -9
14 -14 49 -13 94 0 65 -2 73 -22 84 -17 9 -29 10 -48 1 -13 -6 -27 -8 -29 -3
-10 15 -61 6 -64 -12 -2 -9 2 -17 8 -17 7 0 10 -18 9 -48 -1 -27 0 -53 4 -58
8 -14 -6 -34 -29 -38 -19 -4 -21 1 -22 52 -2 144 2 130 -37 128 -26 -1 -35 -5
-35 -18 0 -10 4 -18 8 -18 5 0 8 -26 7 -57 -3 -74 -2 -73 -19 -73 -10 0 -13
19 -14 76 -1 42 -4 79 -7 82 -7 8 -46 10 -63 4z m298 -106 c0 -67 -4 -78 -26
-69 -17 6 -19 78 -4 118 16 42 30 19 30 -49z"/>
<path d="M2883 948 c-26 -12 -34 -29 -39 -82 -5 -49 12 -103 36 -116 47 -25
96 -3 105 49 5 27 3 31 -12 29 -10 -2 -24 -16 -31 -33 l-13 -30 -19 23 c-27
32 -16 50 33 54 l42 3 -2 39 c-4 63 -45 90 -100 64z m47 -51 c0 -14 -6 -24
-15 -24 -9 0 -15 10 -15 24 0 14 6 23 15 23 9 0 15 -9 15 -23z"/>
</g>
</svg>
